<mxfile host="65bd71144e">
    <diagram id="kkNaMmxd2jnipJOGTaId" name="Page-1">
        <mxGraphModel dx="479" dy="328" grid="1" gridSize="10" guides="1" tooltips="1" connect="1" arrows="1" fold="1" page="1" pageScale="1" pageWidth="850" pageHeight="1100" math="0" shadow="0">
            <root>
                <mxCell id="0"/>
                <mxCell id="1" parent="0"/>
                <mxCell id="2" value="&lt;font&gt;&lt;font style=&quot;font-size: 18px&quot;&gt;&lt;font&gt;&lt;font&gt;var x = 10 ; //global scope&lt;br&gt;&lt;/font&gt;&lt;br&gt;function function1()&lt;font color=&quot;#ff6666&quot;&gt;{&lt;/font&gt;&lt;br&gt;var y = 23; // local scope&lt;br&gt;&lt;br&gt;for (var z=0; z&amp;lt;5;z++ ) {&lt;br&gt;// z is in block scope&lt;br&gt;}&lt;br&gt;&lt;br&gt;&lt;font color=&quot;#ff6666&quot;&gt;}&lt;br&gt;&lt;/font&gt;&lt;/font&gt;&lt;br&gt;&lt;font color=&quot;#ff6666&quot;&gt;CL y&lt;/font&gt;&lt;/font&gt;&lt;br&gt;&lt;/font&gt;" style="rounded=0;whiteSpace=wrap;html=1;" vertex="1" parent="1">
                    <mxGeometry x="150" y="30" width="260" height="290" as="geometry"/>
                </mxCell>
                <mxCell id="3" value="script" style="text;html=1;align=center;verticalAlign=middle;resizable=0;points=[];autosize=1;strokeColor=none;fillColor=none;" vertex="1" parent="1">
                    <mxGeometry x="160" y="10" width="40" height="20" as="geometry"/>
                </mxCell>
            </root>
        </mxGraphModel>
    </diagram>
    <diagram id="KmbM60oI5zKQF-fWyJnv" name="Page-2">
        <mxGraphModel dx="479" dy="328" grid="1" gridSize="10" guides="1" tooltips="1" connect="1" arrows="1" fold="1" page="1" pageScale="1" pageWidth="850" pageHeight="1100" math="0" shadow="0">
            <root>
                <mxCell id="P5P--9TO1sGHWQ_elIJA-0"/>
                <mxCell id="P5P--9TO1sGHWQ_elIJA-1" parent="P5P--9TO1sGHWQ_elIJA-0"/>
                <mxCell id="P5P--9TO1sGHWQ_elIJA-6" style="edgeStyle=none;html=1;fontSize=18;fontColor=#FF6666;entryX=0;entryY=0.5;entryDx=0;entryDy=0;" edge="1" parent="P5P--9TO1sGHWQ_elIJA-1" source="P5P--9TO1sGHWQ_elIJA-2" target="P5P--9TO1sGHWQ_elIJA-5">
                    <mxGeometry relative="1" as="geometry"/>
                </mxCell>
                <mxCell id="P5P--9TO1sGHWQ_elIJA-2" value="z" style="text;html=1;align=center;verticalAlign=middle;resizable=0;points=[];autosize=1;strokeColor=none;fillColor=none;fontSize=18;fontColor=#FF6666;" vertex="1" parent="P5P--9TO1sGHWQ_elIJA-1">
                    <mxGeometry x="50" y="15" width="20" height="30" as="geometry"/>
                </mxCell>
                <mxCell id="P5P--9TO1sGHWQ_elIJA-3" value="&quot;hello&quot;" style="ellipse;whiteSpace=wrap;html=1;fontSize=18;fontColor=#FF6666;" vertex="1" parent="P5P--9TO1sGHWQ_elIJA-1">
                    <mxGeometry x="120" y="15" width="120" height="80" as="geometry"/>
                </mxCell>
                <mxCell id="P5P--9TO1sGHWQ_elIJA-4" value="&lt;div style=&quot;color: rgb(0, 0, 0); background-color: rgb(255, 255, 255); font-family: consolas, &amp;quot;courier new&amp;quot;, monospace; font-weight: normal; font-size: 14px; line-height: 19px;&quot;&gt;&lt;div&gt;&lt;span style=&quot;color: #2a00ff&quot;&gt;z&lt;/span&gt;&lt;span style=&quot;color: #333333&quot;&gt;.&lt;/span&gt;&lt;span style=&quot;color: #000000 ; font-weight: bold&quot;&gt;toUpperCase&lt;/span&gt;&lt;span style=&quot;color: #000000&quot;&gt;()&lt;/span&gt;&lt;/div&gt;&lt;/div&gt;" style="text;whiteSpace=wrap;html=1;fontSize=18;fontColor=#FF6666;" vertex="1" parent="P5P--9TO1sGHWQ_elIJA-1">
                    <mxGeometry x="60" y="190" width="140" height="30" as="geometry"/>
                </mxCell>
                <mxCell id="P5P--9TO1sGHWQ_elIJA-5" value="&quot;HELLO&quot;" style="ellipse;whiteSpace=wrap;html=1;fontSize=18;fontColor=#FF6666;" vertex="1" parent="P5P--9TO1sGHWQ_elIJA-1">
                    <mxGeometry x="230" y="150" width="120" height="80" as="geometry"/>
                </mxCell>
            </root>
        </mxGraphModel>
    </diagram>
    <diagram id="o92fp-itadBycVMKJEMV" name="const on user defined objects">
        <mxGraphModel dx="479" dy="328" grid="1" gridSize="10" guides="1" tooltips="1" connect="1" arrows="1" fold="1" page="1" pageScale="1" pageWidth="850" pageHeight="1100" math="0" shadow="0">
            <root>
                <mxCell id="wIgiS6l8yLvDo57Ogp7x-0"/>
                <mxCell id="wIgiS6l8yLvDo57Ogp7x-1" parent="wIgiS6l8yLvDo57Ogp7x-0"/>
                <mxCell id="wIgiS6l8yLvDo57Ogp7x-2" value="name:&quot;Bala&quot;" style="ellipse;whiteSpace=wrap;html=1;fontSize=18;fontColor=#FF6666;" vertex="1" parent="wIgiS6l8yLvDo57Ogp7x-1">
                    <mxGeometry x="210" y="10" width="140" height="90" as="geometry"/>
                </mxCell>
                <mxCell id="wIgiS6l8yLvDo57Ogp7x-5" style="edgeStyle=none;html=1;fontSize=18;fontColor=#FF6666;" edge="1" parent="wIgiS6l8yLvDo57Ogp7x-1" source="wIgiS6l8yLvDo57Ogp7x-3" target="wIgiS6l8yLvDo57Ogp7x-2">
                    <mxGeometry relative="1" as="geometry"/>
                </mxCell>
                <mxCell id="wIgiS6l8yLvDo57Ogp7x-3" value="p" style="text;html=1;align=center;verticalAlign=middle;resizable=0;points=[];autosize=1;strokeColor=none;fillColor=none;fontSize=18;fontColor=#FF6666;" vertex="1" parent="wIgiS6l8yLvDo57Ogp7x-1">
                    <mxGeometry x="35" y="25" width="30" height="30" as="geometry"/>
                </mxCell>
                <mxCell id="wIgiS6l8yLvDo57Ogp7x-4" value="&lt;div style=&quot;color: rgb(0, 0, 0); background-color: rgb(255, 255, 255); font-family: consolas, &amp;quot;courier new&amp;quot;, monospace; font-weight: normal; font-size: 14px; line-height: 19px;&quot;&gt;&lt;div&gt;&lt;span style=&quot;color: #2a00ff&quot;&gt;p&lt;/span&gt;&lt;span style=&quot;color: #000000&quot;&gt;.&lt;/span&gt;&lt;span style=&quot;color: #333333&quot;&gt;name&lt;/span&gt;&lt;span style=&quot;color: #000000&quot;&gt;=&lt;/span&gt;&lt;span style=&quot;color: #2a00ff&quot;&gt;&quot;Bala&quot;&lt;/span&gt;&lt;/div&gt;&lt;/div&gt;" style="text;whiteSpace=wrap;html=1;fontSize=18;fontColor=#FF6666;" vertex="1" parent="wIgiS6l8yLvDo57Ogp7x-1">
                    <mxGeometry x="35" y="190" width="130" height="30" as="geometry"/>
                </mxCell>
                <mxCell id="4hKyrQgQqduJGs174ohf-0" value="&lt;strike&gt;p = new Person()&lt;/strike&gt;" style="text;html=1;align=center;verticalAlign=middle;resizable=0;points=[];autosize=1;strokeColor=none;fillColor=none;fontSize=18;fontColor=#FF6666;" vertex="1" parent="wIgiS6l8yLvDo57Ogp7x-1">
                    <mxGeometry x="35" y="265" width="150" height="30" as="geometry"/>
                </mxCell>
                <mxCell id="4hKyrQgQqduJGs174ohf-1" value="name:&quot;Prakash&quot;" style="ellipse;whiteSpace=wrap;html=1;fontSize=18;fontColor=#FF6666;" vertex="1" parent="wIgiS6l8yLvDo57Ogp7x-1">
                    <mxGeometry x="270" y="220" width="120" height="80" as="geometry"/>
                </mxCell>
            </root>
        </mxGraphModel>
    </diagram>
</mxfile>